
        <svg xmlns="http://www.w3.org/2000/svg" xmlns:xlink="http://www.w3.org/1999/xlink" version="1.1" width="3187.5" 
        height="1035.9381437301633" viewBox="0 -46.87499999999999 3187.5 1035.9381437301633">
			
			<g transform="scale(9.374999999999998) translate(10, 10)">
				<defs id="SvgjsDefs3844"></defs><g id="SvgjsG3845" featureKey="aMgJeN-0" transform="matrix(1.125,0,0,1.125,14.750007510185242,-18.49993133544922)" fill="#f85467"><g xmlns="http://www.w3.org/2000/svg" transform="translate(0,-952.36218)"><path d="m 60.7828,964.36215 27.1809,0.8834 -27.1809,25.9958 z m -1.9745,1.4513 0,26.7845 -25.2681,0 c 8.6166,-8.7334 16.8796,-17.8103 25.2681,-26.7845 z m 27.7053,3.628 3.4864,1.1989 -12.5877,7.4768 z m -68.1835,2.9656 5.5226,0 12.8654,14.0705 -5.9854,6.1204 -12.4026,0 c 9e-4,-6.7347 0,-13.4597 0,-20.1909 z m -1.9746,1.2304 0,5.8364 -6.3555,0 z m 3.363,20.9796 38.627,0 -10.7675,29.43465 z m 39.0898,4.54286 0,41.20229 -12.5878,-6.8775 c 4.1972,-11.443 8.3886,-22.879 12.5878,-34.32479 z" style="text-indent:0;text-transform:none;direction:ltr;block-progression:tb;baseline-shift:baseline;color:;enable-background:accumulate;" fill="#f85467" fill-opacity="1" stroke="none" marker="none" visibility="visible" display="inline" overflow="visible"></path></g></g><g id="SvgjsG3846" featureKey="8L6ael-0" transform="matrix(2.1478103783149587,0,0,2.1478103783149587,105.66142307677002,15.358868609823794)" fill="#3d4047"><path d="M3.56 6.859999999999999 l0 5.24 l6.86 0 l0 1.4 l-6.86 0 l0 6.5 l-1.54 0 l0 -14.58 l9.04 0 l0 1.44 l-7.5 0 z M14.322 20 l0 -14.58 l1.54 0 l0 13.14 l6.92 0 l0 1.44 l-8.46 0 z M34.903999999999996 5.42 l1.54 0 l0 8.88 c0 1.84 -0.5 3.28 -1.44 4.3 c-0.96 1.02 -2.32 1.54 -4.06 1.54 c-1.72 0 -3.08 -0.52 -4.02 -1.56 c-0.96 -1.04 -1.44 -2.42 -1.44 -4.18 l0 -8.98 l1.52 0 l0 8.9 c0 1.54 0.44 2.72 1.16 3.38 c0.74 0.68 1.68 1 2.86 1 c1.24 0 2.2 -0.36 2.88 -1.12 c0.66 -0.76 1 -1.8 1 -3.18 l0 -8.98 z M40.766 20 l0 -14.58 l9.12 0 l0 1.42 l-7.58 0 l0 5.04 l6.94 0 l0 1.42 l-6.94 0 l0 5.28 l7.66 0 l0 1.42 l-9.2 0 z M63.98799999999999 5.42 l1.5 0 l0 14.58 l-1.66 0 l-8.7 -12.4 l0 12.4 l-1.52 0 l0 -14.58 l1.78 0 l8.6 12.26 l0 -12.26 z M74.80999999999999 6.859999999999999 l0 13.14 l-1.52 0 l0 -13.14 l-4.88 0 l0 -1.44 l11.28 0 l0 1.44 l-4.88 0 z M82.59199999999998 20 l0 -14.58 l1.54 0 l0 14.58 l-1.54 0 z M98.01399999999998 20 l-4.74 -6.38 l-4.7 6.38 l-1.8 0 l5.6 -7.46 l-5.34 -7.12 l1.78 0 l4.5 6 l4.46 -6 l1.78 0 l-5.34 7.1 l5.58 7.48 l-1.78 0 z"></path></g>
			</g>
		</svg>
	