<?xml version="1.0" encoding="utf-8"?>
<!-- Generator: Adobe Illustrator 27.0.0, SVG Export Plug-In . SVG Version: 6.00 Build 0)  -->
<svg id='logo' version="1.1" xmlns="http://www.w3.org/2000/svg" xmlns:xlink="http://www.w3.org/1999/xlink" x="0px" y="0px"
	 viewBox="0 0 1020 1020" style="enable-background:new 0 0 1020 1020;" xml:space="preserve">
<style type="text/css">
	.st0{fill:#333333;}
	.st1{display:none;}
	.st2{display:inline;}
	.st3{font-family:'BuiltTitlingLt-Italic';}
	.st4{font-size:96.1067px;}
	.st5{letter-spacing:3;}
	.st6{font-family:'BuiltTitlingSb-Italic';}
	.st7{font-size:136.2145px;}
	.st8{letter-spacing:5;}
	.st9{display:none;fill:#808080;}
	.st10{font-family:'Montserrat-SemiBold';}
	.st11{font-size:40px;}
</style>
<g id="Layer_4">
	<path class="st0" d="M662.93,518.11c-4.02-10.89-17.28-44.86-50.9-72.44c-46.75-36.46-96.58-37.88-96.58-37.88
		s98.77,1.8,106.76-0.24c-6.63-3.08-45.93-21.07-90.67-14.44c-57.3,8.38-88.7,39.46-89.69,40.45c1.43-1.43,70.22-70.58,75.14-76.56
		c-10.77,4.62-45.39,18.17-73.8,54.39c-13.11,17.15-20.59,33.22-22.67,38.29c-12.81,31.21-13.26,57.05-13.26,57.05
		s0.24-106.88,0.24-109.84c-2.73,2.73-24.15,52.55-13.02,103.69c10.59,47.43,39.53,79.07,39.53,79.07s-73.4-75.85-76.94-77.17
		c1.66,7.69,17.99,46.87,52.55,73.86c45.84,34.87,85.71,35.73,88.39,35.75c-4.17-0.01-96.68-0.22-102.12,0.71
		c5.8,3.08,46.75,20,85.93,15.62c58.85-6.6,92.09-37.4,92.09-37.4s-66.05,65.22-71.25,71.97c15.86-6.15,47.23-19.65,72.2-51.37
		c36.17-46.1,37.36-90.87,37.4-94.03c-0.04,4.77-0.8,101.5,0.24,106.58c4.62-8.88,18.23-38.7,15.62-77.41
		c-5.03-65.38-36.33-99.85-38.47-102.14C592.79,447.92,657.27,516.14,662.93,518.11z M510,593.33c-46.02,0-83.33-37.31-83.33-83.33
		s37.31-83.33,83.33-83.33s83.33,37.31,83.33,83.33S556.02,593.33,510,593.33z"/>
</g>
<g id="Layer_1">
	<g id="Layer_5">
	</g>
	<g id="Layer_3" class="st1">
		<text transform="matrix(1 0 0 1 288.9644 573.5391)" class="st2"><tspan x="0" y="0" class="st0 st3 st4 st5">THE </tspan><tspan x="107.73" y="0" class="st0 st6 st7 st8">CYBER </tspan><tspan x="430.15" y="0" class="st0 st3 st7 st8">CIRCLES</tspan></text>
	</g>
	<g id="Layer_2">
		<text transform="matrix(1 0 0 1 425.0169 549.7463)" class="st9 st10 st11 st5">Stay Secured</text>
	</g>
</g>
</svg>
